<?xml version="1.0" encoding="UTF-8" standalone="no"?>
<svg
   xmlns:dc="http://purl.org/dc/elements/1.1/"
   xmlns:cc="http://creativecommons.org/ns#"
   xmlns:rdf="http://www.w3.org/1999/02/22-rdf-syntax-ns#"
   xmlns:svg="http://www.w3.org/2000/svg"
   xmlns="http://www.w3.org/2000/svg"
   version="1.1"
   id="svg2"
   fill-rule="evenodd"
   viewBox="0 0 200 150"
   height="150pt"
   width="200pt">
  <metadata
     id="metadata16">
    <rdf:RDF>
      <cc:Work
         rdf:about="">
        <dc:format>image/svg+xml</dc:format>
        <dc:type
           rdf:resource="http://purl.org/dc/dcmitype/StillImage" />
      </cc:Work>
    </rdf:RDF>
  </metadata>
  <defs
     id="defs14" />
  <g
     id="g4">
    <g
       id="g6">
      <path
         id="path8"
         d="M 219.685 342.992L 375.591 342.992L 375.591 498.898L 219.685 498.898L 219.685 342.992z"
         style="stroke:none; fill:none" />
      <path
         id="path10"
         d="M 329.333 427.171C 327.972 426.62 327.132 425.023 326.299 423.451C 325.349 421.657 324.487 420.569 322.829 419.371C 319.469 416.943 314.869 415.018 311.773 411.829C 310.23 410.24 309.041 407.291 309.917 405.083C 310.387 411.092 315.227 412.923 320.63 413.192C 320.215 413.778 319.358 414.192 318.696 414.519C 318.693 414.663 318.69 414.807 318.758 414.953C 322.607 417.061 327.076 420.17 329.318 425.396C 329.309 424.933 329.182 423.894 329.414 423.565C 330.193 424.202 331.118 425.071 331.983 425.146C 331.796 421.974 332.056 420.659 333.766 419.067C 333.461 413.432 330.558 408.149 327.635 403.392C 325.37 402.074 325.191 404.097 323.721 404.145C 322.872 401.94 322.578 399.816 324.55 398.71C 325.533 398.159 325.803 397.616 325.799 396.278C 325.793 394.329 324.631 392.387 323.22 390.762C 321.73 389.046 320.977 388.217 318.707 388.025C 310.528 387.334 304.436 394.543 301.263 398.38C 300.429 396.99 299.319 395.254 298.557 393.866C 300.935 390.773 303.325 388.014 306.163 386.187C 308.724 384.539 313.158 382.647 316.297 384.222C 315.264 381.804 310.791 382.517 308.045 382.671C 312.578 380.336 318.821 377.746 321.876 383.733C 322.908 382.747 322.073 380.66 321.61 379.515C 324.522 381.429 326.908 385.779 324.196 388.059C 323.907 388.302 324.126 388.53 324.288 388.8C 325.902 391.477 327.477 394.148 328.971 396.869C 330.03 398.795 329.958 400.05 329.757 401.907C 329.651 402.891 329.763 403.121 330.168 404.035C 331.91 407.968 333.737 412.06 335.484 416.049C 336.146 417.561 336.404 418.576 336.238 420.273C 335.885 423.873 333.914 427.212 329.333 427.171zM 297.395 443.071C 287.297 434.881 286.681 412.675 293.893 400.592C 295.915 404.519 295.979 404.188 296.386 405.041C 291.455 415.995 290.523 433.635 297.527 440.74C 309.942 426.967 299.047 394.995 281.684 388.828C 277.448 387.324 274.984 387.45 271.948 390.965C 270.531 392.606 269.57 394.622 269.649 396.756C 269.687 397.776 269.971 397.794 270.656 398.482C 272.221 400.052 273.338 402.297 271.409 404.141C 270.25 403.528 269.676 403.235 268.637 403.232C 267.907 403.23 267.847 403.21 267.45 403.803C 264.656 407.992 258.922 418.228 262.731 420.478C 263.57 422.077 262.937 422.428 263.165 425.103C 263.874 424.529 264.896 423.905 265.697 423.562C 265.76 423.997 265.887 424.746 266.021 425.182C 268.51 420.475 271.857 417.678 276.396 414.823C 275.906 414.162 275.87 414.124 274.45 413.082C 280.815 412.432 283.711 412.164 285.673 405.038C 285.903 412.766 280.774 414.25 274.634 417.718C 270.48 419.985 269.339 422.49 267.308 425.749C 266.823 426.529 266.774 426.725 265.853 426.872C 264.216 427.135 262.778 426.911 261.543 425.793C 259.877 424.286 259.207 421.968 259.024 419.679C 258.911 418.262 259.067 417.439 259.557 416.12C 260.213 414.354 261.107 412.402 264.965 404.047C 265.406 403.093 265.523 402.636 265.546 401.587C 265.565 400.789 265.582 400.006 265.6 399.227C 265.624 398.191 266.032 397.486 266.498 396.557C 267.918 393.724 269.684 391.09 271.402 388.406C 271.677 387.879 271.162 388.196 270.739 387.793C 270.726 387.78 270.711 387.765 270.697 387.752C 268.468 385.54 271.525 380.557 273.746 379.534C 273.755 379.614 272.118 383.831 273.897 383.534C 275.839 377.634 283.639 380.28 287.406 382.708C 286.802 382.578 278.253 381.748 279.583 384.045C 280.896 383.562 282.113 383.53 283.332 383.739C 285.423 384.096 287.05 384.903 288.771 386.095C 296.147 391.202 301.249 399.782 303.891 409.131C 306.882 419.715 306.992 435.821 297.395 443.071zM 367.93 448.91L 368.215 448.91C 368.351 448.91 368.444 448.889 368.493 448.849C 368.542 448.809 368.568 448.755 368.568 448.688C 368.568 448.645 368.555 448.607 368.531 448.572C 368.508 448.539 368.475 448.513 368.432 448.497C 368.39 448.479 368.311 448.471 368.197 448.471L 367.93 448.471L 367.93 448.91zM 225.638 462.246L 225.638 461.333C 228.214 461.355 227.897 459.551 227.897 457.857L 227.897 450.049C 227.897 449.236 227.786 448.732 227.566 448.536C 227.349 448.358 226.761 448.26 225.804 448.244L 225.804 447.571L 231.093 447.571L 236.159 457.776L 241.011 447.571L 246.332 447.571L 246.332 448.199C 246.226 448.199 246.131 448.192 246.051 448.199C 245.961 448.208 245.876 448.221 245.796 448.224C 245.162 448.249 244.763 448.35 244.592 448.512C 244.422 448.675 244.337 449.159 244.337 449.955L 244.337 459.023C 244.337 460.74 244.655 461.374 246.64 461.339L 246.64 462.246L 238.836 462.246L 238.836 461.188C 240.781 461.188 241.583 461.246 241.583 459.29L 241.583 449.775L 235.604 462.076L 234.947 462.104L 229.113 450.335L 229.113 459.832C 229.113 461.057 230.886 461.204 231.697 461.222L 231.697 462.246L 225.638 462.246zM 252.091 456.519L 257.454 456.546L 254.737 451.043L 252.091 456.519zM 246.915 462.246L 246.915 461.339C 248.334 461.447 249.159 459.804 250.273 457.529L 255.296 447.273L 255.817 447.273L 261.757 459.613C 262.272 460.682 262.48 461.241 263.823 461.368L 263.823 462.246L 257.333 462.246L 257.333 461.324C 258.497 461.445 259.555 461.262 258.935 459.812L 257.969 457.552L 251.692 457.552L 250.727 459.71C 250.084 461.148 250.831 461.241 252.219 461.324L 252.219 462.246L 246.915 462.246zM 278.069 458.034L 278.771 458.169L 277.672 462.246L 264.492 462.246L 264.492 461.368C 265.782 461.302 266.992 461.145 266.992 459.755L 266.992 449.906C 266.992 448.4 266.443 448.276 264.641 448.199C 264.597 448.199 264.566 448.199 264.544 448.199C 264.506 448.199 264.463 448.199 264.42 448.199L 264.42 447.571L 272.144 447.571L 272.144 448.199C 270.305 448.199 269.568 448.284 269.568 449.853C 269.568 452.985 269.568 456.116 269.568 459.247C 269.568 460.629 270.712 460.965 272.53 461.064C 274.284 461.159 276.51 461.015 277.366 459.584C 277.694 459.036 277.957 458.435 278.069 458.034zM 309.739 460.63C 308.171 461.369 306.359 462.078 304.672 462.268C 301.674 462.606 298.624 462.192 296.448 460.348C 293.867 458.161 293.454 454.461 294.923 451.55C 295.533 450.341 296.362 449.535 297.489 448.798C 300.776 446.652 303.678 447.56 306.532 448.365C 307.753 448.71 307.684 448.281 307.979 447.395L 308.67 447.449L 309.014 452.187L 308.359 452.187C 306.426 447.405 300.694 447.964 298.993 450.281C 294.548 456.338 299.217 464.372 307.008 460.314L 307.034 460.033L 307.051 456.503C 307.056 455.28 305.75 455.251 304.834 455.251L 304.834 454.613L 311.859 454.568L 311.859 455.15C 310.944 455.268 309.772 455.141 309.764 456.526L 309.739 460.63zM 333.323 459.222C 333.323 461.034 334.225 461.245 335.876 461.324L 335.876 462.246L 329.113 462.246L 328.219 462.246L 323.781 462.246L 317.759 454.556C 322.784 455.442 324.422 447.37 316.081 448.753L 316.081 458.711C 316.081 459.41 315.966 460.21 316.424 460.802C 316.826 461.324 317.549 461.5 318.516 461.477L 318.516 462.246L 310.617 462.246L 310.617 461.513C 311.54 461.497 312.596 461.447 313.029 460.51C 313.18 460.185 313.163 459.876 313.163 459.489L 313.163 449.866C 313.037 448.676 312.247 448.361 310.55 448.358L 310.55 447.571C 312.314 447.643 314.052 447.889 315.821 447.847C 317.399 447.81 318.957 447.571 320.539 447.571C 321.175 447.571 321.706 447.754 322.318 447.97C 325.985 449.262 326.209 454.489 321.234 455.347L 325.171 459.95C 325.665 460.528 326.163 460.996 326.888 461.288C 327.284 461.449 327.727 461.556 328.219 461.608L 328.219 461.324C 330.566 461.286 330.771 460.028 330.771 458.165L 330.771 450.186C 330.771 448.446 329.948 448.494 328.404 448.43C 328.383 448.43 328.362 448.43 328.341 448.43C 328.298 448.43 328.256 448.43 328.219 448.43L 328.219 447.571L 335.876 447.571L 335.876 448.43C 333.657 448.46 333.323 448.492 333.323 450.43L 333.323 459.222zM 283.53 456.519L 288.893 456.546L 286.176 451.043L 283.53 456.519zM 278.354 462.246L 278.354 461.324C 279.772 461.522 280.597 459.804 281.712 457.529L 286.735 447.273L 287.256 447.273L 293.196 459.613C 293.711 460.682 293.919 461.196 295.262 461.324L 295.262 462.246L 288.772 462.246L 288.772 461.324C 289.935 461.445 290.994 461.262 290.374 459.812L 289.408 457.552L 283.13 457.552L 282.165 459.71C 281.523 461.148 282.269 461.241 283.658 461.324L 283.658 462.246L 278.354 462.246zM 357.716 456.519L 363.079 456.546L 360.362 451.043L 357.716 456.519zM 352.54 462.246L 352.54 461.324C 353.959 461.522 354.784 459.804 355.898 457.529L 360.922 447.273L 361.443 447.273L 367.382 459.613C 367.897 460.682 368.105 461.196 369.448 461.324L 369.448 462.246L 362.958 462.246L 362.958 461.324C 364.122 461.445 365.18 461.262 364.56 459.812L 363.594 457.552L 357.317 457.552L 356.352 459.71C 355.709 461.148 356.456 461.241 357.844 461.324L 357.844 462.246L 352.54 462.246zM 343.281 448.91L 343.281 460.949C 344.504 461.218 345.671 461.314 346.762 461.185C 348.004 461.039 348.879 460.644 349.773 459.762C 352.172 457.396 352.3 453.518 350.395 450.751C 349.423 449.338 348.47 448.862 346.815 448.708C 345.511 448.586 344.344 448.67 343.281 448.91zM 337.695 447.571C 340.448 447.676 343.201 447.676 345.955 447.571C 357.845 447.403 358.413 462.103 345.955 462.246C 343.201 462.097 340.448 462.078 337.695 462.246L 337.695 461.574C 339.559 461.447 340.121 461.166 340.121 459.27L 340.121 451.746C 340.121 449.671 340.373 448.378 337.695 448.294L 337.695 447.571zM 367.696 449.728L 367.696 448.275L 368.195 448.275C 368.366 448.275 368.489 448.288 368.566 448.315C 368.642 448.341 368.703 448.388 368.749 448.455C 368.794 448.522 368.816 448.593 368.816 448.668C 368.816 448.775 368.778 448.867 368.703 448.946C 368.627 449.024 368.526 449.068 368.401 449.078C 368.452 449.099 368.494 449.125 368.524 449.155C 368.583 449.213 368.654 449.308 368.74 449.444L 368.917 449.728L 368.63 449.728L 368.501 449.498C 368.4 449.319 368.318 449.206 368.256 449.161C 368.213 449.127 368.15 449.111 368.068 449.111L 367.93 449.111L 367.93 449.728L 367.696 449.728zM 368.288 447.854C 368.098 447.854 367.914 447.902 367.734 448C 367.555 448.097 367.414 448.236 367.313 448.416C 367.211 448.597 367.161 448.785 367.161 448.982C 367.161 449.176 367.21 449.362 367.31 449.541C 367.41 449.719 367.549 449.858 367.728 449.958C 367.907 450.058 368.093 450.108 368.288 450.108C 368.483 450.108 368.67 450.058 368.849 449.958C 369.027 449.858 369.166 449.719 369.265 449.541C 369.365 449.362 369.414 449.176 369.414 448.982C 369.414 448.785 369.364 448.597 369.263 448.416C 369.162 448.236 369.022 448.097 368.841 448C 368.661 447.902 368.477 447.854 368.288 447.854zM 368.288 447.63C 368.515 447.63 368.736 447.688 368.952 447.804C 369.168 447.921 369.337 448.087 369.457 448.304C 369.578 448.52 369.638 448.746 369.638 448.982C 369.638 449.215 369.579 449.438 369.46 449.652C 369.341 449.868 369.174 450.034 368.961 450.153C 368.746 450.272 368.522 450.331 368.288 450.331C 368.054 450.331 367.83 450.272 367.616 450.153C 367.402 450.034 367.235 449.868 367.116 449.652C 366.996 449.438 366.937 449.215 366.937 448.982C 366.937 448.746 366.997 448.52 367.118 448.304C 367.239 448.087 367.408 447.921 367.624 447.804C 367.84 447.688 368.062 447.63 368.288 447.63z"
         style="stroke:none; fill:#000000" />
    </g>
  </g>
</svg>
